# xmcd CD database file
#
# Track frame offsets:
#	150
#	15620
#	36248
#	64849
#	80311
#	115891
#	130224
#	151686
#	170042
#	190131
#	215254
#	232248
#	250099
#	273805
#
# Disc length: 3878 seconds
#
# Revision: 0
# Processed by: cddbd v1.5PL3 Copyright (c) Steve Scherf et al.
# Submitted via: CDex 1.60beta1
#
DISCID=b90f240e
DTITLE=Paris Washboard - Truckin'
DYEAR=1995
DGENRE=Jazz
TTITLE0=Froggie Moore
TTITLE1=Loving
TTITLE2=I Wish I Were Twins
TTITLE3=Sweetie Dear
TTITLE4=Keepin' Out of Mischief Now
TTITLE5=Riffs
TTITLE6=Twelfth Street Rag
TTITLE7=Nobody But My Baby (Is Getting My Love)
TTITLE8=Truckin'
TTITLE9=Rocking Chair
TTITLE10=Cushion Foot Stomp
TTITLE11=F Minor Stride
TTITLE12=Winin' Boy Blues
TTITLE13=Thou Swell
EXTD=YEAR: 1995
EXTT0=
EXTT1=
EXTT2=
EXTT3=
EXTT4=
EXTT5=
EXTT6=
EXTT7=
EXTT8=
EXTT9=
EXTT10=
EXTT11=
EXTT12=
EXTT13=
PLAYORDER=
